<?xml version="1.0" encoding="utf-8"?>
<!-- Svg Vector Icons : http://www.onlinewebfonts.com/icon -->
<!DOCTYPE svg PUBLIC "-//W3C//DTD SVG 1.1//EN" "http://www.w3.org/Graphics/SVG/1.1/DTD/svg11.dtd">
<svg version="1.1" xmlns="http://www.w3.org/2000/svg" xmlns:xlink="http://www.w3.org/1999/xlink" x="0px" y="0px" viewBox="0 0 1000 1000" enable-background="new 0 0 1000 1000" xml:space="preserve">
<metadata> Svg Vector Icons : http://www.onlinewebfonts.com/icon </metadata>
<g><path d="M983.9,877.7c-1.1,7.7-3.1,15.3-5.9,21.1c-5.2,10.4-10.1,11.3-29.7,10.4c-25.3-1.1-61.4,0-99.7,1.5c0,10.4,0.4,15.3,0.4,15.3c2.5,28.5,15.5,29.4,20.7,29.4h82.3c7.3,0,14,0,19.1-3.4c6.7-4.3,9.6-17,12.1-39c0.4-3.2,0.6-7.4,0.8-12.3v-0.2c0-1.5,0.2-3.4,0.2-5.5V893l0,0C984.1,887.9,984.1,882.2,983.9,877.7L983.9,877.7L983.9,877.7z"/><path d="M15.8,877.7c1.2,7.7,3.1,15.3,5.9,21.1c5.2,10.4,10.1,11.3,29.7,10.4c25.3-1.1,61.4,0,99.7,1.5c0,10.4-0.4,15.3-0.4,15.3c-2.5,28.5-15.5,29.4-20.7,29.4H47.7c-7.3,0-13.4,0-19.1-3.4c-6.9-4-9.6-17-12.1-39c-0.4-3.2-0.6-7.4-0.8-12.3v-0.2c0-1.5-0.2-3.4-0.2-5.5V893l0,0C15.8,887.9,15.8,882.2,15.8,877.7L15.8,877.7L15.8,877.7z"/><path d="M990,699.9c0-57.9-7.7-114.4-10.7-120.6c-2.3-4.5-17-16.4-50.5-38.8c-33.9-22.8-33.1-19.4-39.2-34.3c5.5-1.7,10.9-4.9,14.2-5.3c7.3-0.8,7.7,6,22.8,6c15.1,0,47.8-4,54.6-10.6c6.7-6.6,8.8-8.9,8.8-14.7c0-5.8-3.4-17.9-10-25.1c-6.5-7.2-34.3-10.7-50.5-12.8c-16.3-2.1-18.6,0-22.8,2.6c-6.7,4.1-7.1,42-7.1,42l-15.9,0.4c-10.3-25.1-24.7-75.6-47.1-115.4c-24.5-43.4-50.2-56.9-60.9-60.3c-10.5-3.2-20.1-5.5-91.9-12.6C610.4,293,552.1,292,500,292c-52.1,0-110.4,1.1-183.8,8.5c-71.8,7.4-81.3,9.4-91.9,12.6c-10.5,3.2-36.4,17-60.9,60.3c-22.4,39.8-36.7,90.3-47.1,115.4l-15.9-0.4c0,0-0.2-37.9-7.1-42c-4.2-2.6-6.5-4.9-22.8-2.6c-16.3,2.3-44,5.7-50.5,12.8c-6.5,7.2-10,19.2-10,25.1s2.1,8.3,8.8,14.7c6.7,6.6,39.4,10.6,54.6,10.6c15.1,0,15.5-6.8,22.8-6c3.2,0.4,8.8,3.6,14.2,5.3c-6.3,14.9-5.4,11.5-39.2,34.3c-33.5,22.6-48.4,34.3-50.5,38.8C17.7,585.5,10,642.1,10,699.9c0,57.9,4.2,109.9,4.2,128.4c0,7.7,0,21.3,1.7,34.3c1.1,7.7,2.9,15.3,5.9,21.1c5.2,10.4,10,11.3,29.7,10.4c25.3-1.1,61.8,0,99.5,1.5c25.3,0.9,51.1,1.9,74.1,2.5c57.4,1.1,40.6-8.3,65.1-7.9c24.5,0.4,121.2,4.3,209.6,4.3c88.4,0,185.3-4,209.6-4.3c24.5-0.4,7.7,9.1,65.1,7.9c23-0.4,48.8-1.5,74.1-2.5c37.7-1.3,74.5-2.6,99.5-1.5c19.7,0.9,24.5,0,29.7-10.4c2.9-5.8,4.8-13.4,5.9-21.1c1.9-13,1.7-26.6,1.7-34.3C985.8,810,990,757.8,990,699.9L990,699.9L990,699.9z M175,414.6c9.2-21.1,36.7-63.5,50.1-71.1c3.3-1.9,31.8-10.7,103.2-15.5c65.7-4.3,138.2-6,171.9-6c33.7,0,106.2,1.7,171.9,6c71.2,4.7,100.1,13.4,103.2,15.5c17.2,11.7,41,49.9,50.2,71.1c9.2,21.1,21.4,62.6,19.1,68.2c-2.3,5.7,2.3,8.5-28.7,6c-30.8-2.3-224.3-4.7-315.4-4.7c-90.9,0-284.4,2.5-315.4,4.7c-31,2.3-26.4-0.4-28.7-6C153.6,477.1,165.8,435.8,175,414.6L175,414.6L175,414.6z M245.4,650.5c-13.8,3.4-22,10.7-39.2,10.6c-17.2,0-63.7-7.7-73.7-8.1c-10-0.4-18.8,6.6-23.9,7.9c-5.2,1.3-15.3-2.3-30.6-7c-15.3-4.7-24.3-3.4-29.3-23.9c-5.2-20.4,0-49.6,0-49.6c33.1-1.5,65.1,1.5,125,18.1c59.9,16.6,93.2,48.4,93.2,48.4S259.2,647.2,245.4,650.5L245.4,650.5L245.4,650.5z M695.6,799.1c-27.4,3.6-142,4.5-195.6,4.5c-53.6,0-168.3-1.1-195.6-4.5c-27.9-3.6-64.3-36.6-39.2-62.8c33.9-35.6,27.6-34.5,104.5-44.3c66.6-8.5,117.1-8.9,130.4-8.9c13,0,63.7,0.6,130.3,8.9c76.9,9.8,70.6,8.7,104.5,44.3C759.9,762.5,723.6,795.5,695.6,799.1L695.6,799.1L695.6,799.1z M951.3,630.2c-5.2,20.4-14,19.2-29.3,23.9c-15.3,4.7-25.5,8.1-30.6,7c-5.2-1.1-14-8.1-23.9-7.9c-10,0.4-56.5,8.1-73.7,8.1c-17.2,0-25.4-7.2-39.2-10.6c-13.8-3.4-21.4-3.4-21.4-3.4s33.1-32.1,93.2-48.4c59.9-16.6,91.9-19.6,125-18.1C951.3,580.4,956.5,609.6,951.3,630.2L951.3,630.2L951.3,630.2z"/><path d="M405.1,256.6c0,19.7,12.9,35.6,28.7,35.6c15.9,0,28.7-15.9,28.7-35.6c0-19.7-12.9-35.6-28.7-35.6C417.9,221,405.1,236.9,405.1,256.6z M433.8,226.7c13.3,0,24.2,13.4,24.2,29.9c0,16.5-10.8,29.9-24.2,29.9c-13.3,0-24.2-13.4-24.2-29.9C409.7,240.1,420.5,226.7,433.8,226.7z M392.2,158.5c25.4,0,46-25.5,46-56.9c0-31.4-20.6-56.9-46-56.9s-46,25.5-46,56.9C346.2,133,366.8,158.5,392.2,158.5z M392.2,53.7c21.3,0,38.7,21.4,38.7,47.9c0,26.4-17.3,47.9-38.7,47.9s-38.6-21.4-38.6-47.9C353.5,75.2,370.8,53.7,392.2,53.7z M287.7,270.7l-47.9-38.6C239.8,253.4,261.2,270.7,287.7,270.7z M396.3,136.9l-31-25C365.3,125.7,379.2,136.9,396.3,136.9z M887.7,373.4l-21.1-17C866.6,365.8,876,373.4,887.7,373.4z M788.7,276.1c20,0,36.2-20.1,36.2-44.8c0-24.7-16.2-44.8-36.2-44.8c-20,0-36.2,20.1-36.2,44.8C752.6,256.1,768.7,276.1,788.7,276.1z M788.7,193.6c16.8,0,30.4,16.9,30.4,37.7c0,20.8-13.6,37.7-30.4,37.7c-16.8,0-30.4-16.9-30.4-37.7S771.9,193.6,788.7,193.6z M884.3,389.2c17.7,0,32-17.8,32-39.7c0-21.9-14.3-39.7-32-39.7c-17.7,0-32,17.8-32,39.7C852.3,371.4,866.6,389.2,884.3,389.2z M884.3,316.1c14.9,0,26.9,14.9,26.9,33.3c0,18.4-12,33.4-26.9,33.4c-14.9,0-26.9-14.9-26.9-33.4C857.4,331.1,869.4,316.1,884.3,316.1z M570.8,246.2l-50.6-40.8C520.2,228,542.8,246.2,570.8,246.2z M438.3,276.8l-20.2-16.3C418.1,269.5,427.1,276.8,438.3,276.8z M561.1,277.9c39.9,0,72.2-40.1,72.2-89.5C633.4,139,601,99,561.1,99s-72.2,40.1-72.2,89.5C488.9,237.9,521.2,277.9,561.1,277.9z M561.1,113.2c33.5,0,60.7,33.7,60.7,75.2c0,41.6-27.2,75.2-60.7,75.2c-33.5,0-60.7-33.7-60.7-75.2C500.4,146.9,527.6,113.2,561.1,113.2z M794.6,259.3l-24.5-19.7C770.1,250.5,781.1,259.3,794.6,259.3z M661.7,116.6c0,14.3,14.4,25.9,32.1,25.9L661.7,116.6z M151.1,300.4c22.2,0,40.2-22.3,40.2-49.8c0-27.5-18-49.8-40.2-49.8c-22.2,0-40.2,22.3-40.2,49.8C110.9,278,128.9,300.4,151.1,300.4z M151.1,208.6c18.7,0,33.8,18.8,33.8,41.9c0,23.1-15.1,41.9-33.8,41.9c-18.7,0-33.8-18.8-33.8-41.9C117.3,227.4,132.4,208.6,151.1,208.6z M117.5,388.6l-21.1-17C96.4,381,105.8,388.6,117.5,388.6z M150.3,284.5l-24.7-30.6C125.6,270.8,136.6,284.5,150.3,284.5z M112,332.4c-15.9,0-28.7,15.9-28.7,35.6c0,19.7,12.9,35.6,28.7,35.6c15.9,0,28.7-15.9,28.7-35.6C140.8,348.3,127.9,332.4,112,332.4z M112,397.9c-13.3,0-24.2-13.4-24.2-29.9c0-16.5,10.8-29.9,24.2-29.9c13.3,0,24.2,13.4,24.2,29.9C136.2,384.5,125.4,397.9,112,397.9z M740.7,104.7c0-33.1-21.7-60-48.4-60c-26.7,0-48.4,26.9-48.4,60c0,33.1,21.7,60,48.4,60C719,164.6,740.7,137.8,740.7,104.7z M651.6,104.7c0-27.9,18.2-50.4,40.7-50.4c22.5,0,40.7,22.6,40.7,50.5c0,27.9-18.2,50.4-40.7,50.4C669.8,155.1,651.6,132.5,651.6,104.7z M276.2,294.2c34,0,61.6-34.1,61.6-76.3c0-42.1-27.6-76.3-61.6-76.3c-34,0-61.6,34.1-61.6,76.3C214.7,260.1,242.2,294.2,276.2,294.2z M276.2,153.8c28.6,0,51.8,28.7,51.8,64.1c0,35.4-23.2,64.1-51.8,64.1c-28.6,0-51.8-28.7-51.8-64.1C224.5,182.5,247.6,153.8,276.2,153.8z"/></g>
</svg>